<?xml version="1.0" standalone="no"?>
<!DOCTYPE svg PUBLIC "-//W3C//DTD SVG 20010904//EN" "http://www.w3.org/TR/2001/REC-SVG-20010904/DTD/svg10.dtd">
<svg version="1.0" xmlns="http://www.w3.org/2000/svg"
    width="3333.000000pt" height="3333.000000pt" viewBox="0 0 3333.000000 3333.000000"
    preserveAspectRatio="xMidYMid meet">

    <g transform="translate(0.000000,3333.000000) scale(0.100000,-0.100000)"
        fill="#000000" stroke="none">
        <path
            d="M5757 33304 c-175 -33 -352 -106 -507 -209 -175 -117 -361 -349 -439
-550 -83 -210 -75 -7 -81 -2090 l-5 -1860 -1870 -5 c-1445 -4 -1876 -8 -1898
-17 -15 -7 -27 -11 -27 -9 0 6 -76 -18 -162 -52 -349 -135 -637 -483 -729
-879 -30 -130 -37 -399 -14 -530 47 -266 166 -503 340 -678 172 -173 338 -271
575 -338 l75 -22 1855 -5 1855 -5 5 -1855 5 -1855 27 -98 c50 -181 174 -396
305 -529 178 -182 439 -317 703 -364 126 -23 334 -23 460 0 322 58 616 233
799 477 102 135 161 253 210 424 l25 90 6 1855 5 1855 1855 5 1855 5 98 27
c181 50 396 174 529 305 182 178 317 439 364 703 23 126 23 334 0 460 -58 322
-233 616 -477 799 -135 102 -253 161 -424 210 l-90 25 -1862 3 -1863 3 0 1848
c0 1268 -4 1861 -11 1892 -6 25 -13 56 -15 69 -12 60 -86 239 -129 311 -169
278 -471 494 -802 571 -118 28 -430 35 -546 13z" />
        <path
            d="M19485 31644 c-270 -37 -513 -132 -740 -292 -61 -43 -1561 -1536
-6453 -6426 -3505 -3504 -6433 -6436 -6507 -6516 -948 -1029 -1512 -2308
-1675 -3795 -65 -595 -50 -1397 36 -1975 122 -817 352 -1547 698 -2215 275
-531 588 -972 994 -1400 83 -88 1410 -1421 2949 -2962 1957 -1960 2837 -2834
2929 -2911 514 -428 1057 -750 1679 -995 653 -257 1312 -405 2110 -474 288
-25 1000 -25 1285 0 823 72 1530 242 2225 537 164 69 510 242 665 332 312 180
653 420 925 652 77 65 365 344 641 620 846 847 3014 3043 3073 3114 159 190
274 433 333 702 19 91 22 134 23 320 0 162 -4 237 -17 305 -51 270 -159 517
-326 745 -76 104 -278 301 -392 383 -115 81 -341 196 -468 237 -475 153 -984
98 -1387 -150 -146 -90 -185 -124 -686 -610 -594 -576 -1168 -1131 -1485
-1436 -176 -170 -509 -491 -739 -714 -778 -753 -840 -812 -935 -892 -302 -252
-673 -436 -1100 -546 -669 -172 -1496 -157 -2140 39 -353 107 -719 304 -980
527 -58 49 -870 860 -1805 1802 -935 942 -2181 2197 -2768 2789 -588 592
-1107 1122 -1154 1179 -562 668 -817 1659 -687 2662 64 494 244 978 505 1360
120 176 245 315 652 729 680 690 1694 1719 2077 2106 551 558 1004 1018 1775
1800 1422 1443 1382 1405 1600 1550 500 334 1150 505 1925 505 841 0 1541
-216 2069 -638 92 -73 188 -164 546 -512 88 -86 353 -342 590 -570 782 -754
1048 -1012 1210 -1170 382 -372 1275 -1231 1330 -1279 189 -166 437 -288 705
-347 115 -25 143 -28 340 -28 225 -1 296 8 470 56 434 119 827 430 1062 841
26 45 70 138 97 207 88 223 121 395 121 642 0 373 -108 696 -330 987 -32 42
-696 722 -1476 1510 -781 788 -1524 1540 -1653 1672 -378 388 -615 601 -926
834 -452 338 -907 592 -1440 807 -208 84 -558 198 -760 249 -93 23 -173 45
-177 48 -8 7 439 463 1937 1980 512 518 1002 1017 1090 1109 284 297 402 510
476 859 27 126 37 391 19 530 -90 722 -631 1326 -1338 1494 -201 48 -422 60
-617 33z" />
        <path
            d="M14812 15388 c-436 -55 -841 -308 -1101 -688 -212 -311 -311 -660
-297 -1050 28 -801 574 -1459 1326 -1597 90 -17 442 -18 6600 -18 6231 0 6509
1 6600 18 317 60 587 204 820 437 146 145 234 266 319 435 300 595 235 1316
-165 1844 -235 310 -551 512 -946 604 l-93 22 -6495 1 c-3919 1 -6524 -2
-6568 -8z" />
    </g>
</svg>
